Input #0, mov,mp4,m4a,3gp,3g2,mj2, from '/home/hbattu/projects/huberman-gpt/huberman-audio/mp3/tmpe53z8jrb.mp4':
  Metadata:
    major_brand     : dash
    minor_version   : 0
    compatible_brands: iso6mp41
    creation_time   : 2023-02-27T12:53:24.000000Z
  Duration: 03:05:33.27, start: 0.000000, bitrate: 129 kb/s
    Stream #0:0(eng): Audio: aac (LC) (mp4a / 0x6134706D), 44100 Hz, stereo, fltp, 0 kb/s (default)
    Metadata:
      creation_time   : 2023-02-27T12:53:24.000000Z
      handler_name    : ISO Media file produced by Google Inc.
Stream mapping:
  Stream #0:0 -> #0:0 (aac (native) -> mp3 (libmp3lame))
Press [q] to stop, [?] for help
[graph_0_in_0_0 @ 0x560fcf024640] tb:1/44100 samplefmt:fltp samplerate:44100 chlayout:0x3
Output #0, mp3, to '../huberman-audio/mp3/q37ARYnRDGc.mp3':
  Metadata:
    major_brand     : dash
    minor_version   : 0
    compatible_brands: iso6mp41
    TSSE            : Lavf58.29.100
    Stream #0:0(eng): Audio: mp3 (libmp3lame), 44100 Hz, stereo, fltp, delay 1105 (default)
    Metadata:
      creation_time   : 2023-02-27T12:53:24.000000Z
      handler_name    : ISO Media file produced by Google Inc.
      encoder         : Lavc58.54.100 libmp3lame
No more output streams to write to, finishing.
size=  173958kB time=03:05:33.28 bitrate= 128.0kbits/s speed=  95x    
[AVIOContext @ 0x560fcef0b900] Statistics: 0 seeks, 235 writeouts
video:0kB audio:173958kB subtitle:0kB other streams:0kB global headers:0kB muxing overhead: 0.000194%
Input file #0 (/home/hbattu/projects/huberman-gpt/huberman-audio/mp3/tmpe53z8jrb.mp4):
  Input stream #0:0 (audio): 479470 packets read (178132469 bytes); 479470 frames decoded (490977280 samples); 
  Total: 479470 packets (178132469 bytes) demuxed
Output file #0 (../huberman-audio/mp3/q37ARYnRDGc.mp3):
  Output stream #0:0 (audio): 426196 frames encoded (490977280 samples); 426197 packets muxed (178132950 bytes); 
  Total: 426197 packets (178132950 bytes) muxed
[AVIOContext @ 0x560fcef3d040] Statistics: 2 seeks, 681 writeouts
[AVIOContext @ 0x560fcef14880] Statistics: 180180469 bytes read, 0 seeks
